<svg width="42" height="14" viewBox="0 0 42 14" fill="none" xmlns="http://www.w3.org/2000/svg">
<path fill-rule="evenodd" clip-rule="evenodd" d="M8.00092 0.998965C8.00092 1.25897 7.90092 1.50897 7.71092 1.70897L3.41092 5.99897L41.0009 5.99897C41.5509 5.99897 42.0009 6.44896 42.0009 6.99896C42.0009 7.54896 41.5509 7.99896 41.0009 7.99896L3.41092 7.99896L7.71092 12.289C8.10092 12.679 8.10092 13.319 7.71092 13.709C7.32092 14.099 6.68092 14.099 6.29092 13.709L0.290918 7.70896C0.200918 7.61896 0.130918 7.50896 0.080918 7.38896C0.060918 7.33896 0.040918 7.29896 0.040918 7.24896C-0.00908203 7.08896 -0.00908203 6.90896 0.040918 6.74896C0.040918 6.69896 0.060918 6.65897 0.080918 6.60896C0.130918 6.48897 0.200918 6.37896 0.290918 6.28896L6.29092 0.288965C6.68092 -0.101035 7.32092 -0.101035 7.71092 0.288965C7.90092 0.488965 8.00092 0.738965 8.00092 0.998965Z" fill="#313037"/>
</svg>
