<svg width="24" height="24" viewBox="0 0 24 24" fill="none" xmlns="http://www.w3.org/2000/svg">
<path fill-rule="evenodd" clip-rule="evenodd" d="M10.7075 5.28762C10.8975 5.48762 10.9975 5.73762 10.9975 5.99762C10.9975 6.25762 10.8975 6.50762 10.7075 6.70762L6.4075 10.9976L19.9975 10.9976C20.5475 10.9976 20.9975 11.4476 20.9975 11.9976C20.9975 12.5476 20.5475 12.9976 19.9975 12.9976L6.4075 12.9976L10.7075 17.2876C11.0975 17.6776 11.0975 18.3176 10.7075 18.7076C10.3175 19.0976 9.6775 19.0976 9.2875 18.7076L3.2875 12.7076C3.1975 12.6176 3.1275 12.5076 3.0775 12.3876C3.0575 12.3376 3.0375 12.2976 3.0375 12.2476C2.9875 12.0876 2.9875 11.9076 3.0375 11.7476C3.0375 11.6976 3.0575 11.6576 3.0775 11.6076C3.1275 11.4876 3.1975 11.3776 3.2875 11.2876L9.2875 5.28762C9.6775 4.89762 10.3175 4.89762 10.7075 5.28762Z" fill="#313037"/>
</svg>
