<svg width="29" height="30" viewBox="0 0 29 30" fill="none" xmlns="http://www.w3.org/2000/svg">
<g filter="url(#filter0_d_12407_28)">
<path fill-rule="evenodd" clip-rule="evenodd" d="M6 10.5C6 6.92 8.92 4 12.5 4C16.08 4 19 6.92 19 10.5C19 12.29 18.27 13.92 17.09 15.09C15.92 16.27 14.29 17 12.5 17C8.92 17 6 14.08 6 10.5ZM23.71 20.29L19.18 15.76C20.32 14.31 21 12.48 21 10.5C21 5.81 17.19 2 12.5 2C7.81 2 4 5.81 4 10.5C4 15.19 7.81 19 12.5 19C14.48 19 16.31 18.32 17.76 17.18L22.29 21.71C22.49 21.9 22.74 22 23 22C23.26 22 23.51 21.9 23.71 21.71C24.1 21.32 24.1 20.68 23.71 20.29Z" fill="#313037"/>
</g>
<defs>
<filter id="filter0_d_12407_28" x="-2" y="0" width="32" height="32" filterUnits="userSpaceOnUse" color-interpolation-filters="sRGB">
<feFlood flood-opacity="0" result="BackgroundImageFix"/>
<feColorMatrix in="SourceAlpha" type="matrix" values="0 0 0 0 0 0 0 0 0 0 0 0 0 0 0 0 0 0 127 0" result="hardAlpha"/>
<feOffset dy="4"/>
<feGaussianBlur stdDeviation="2"/>
<feComposite in2="hardAlpha" operator="out"/>
<feColorMatrix type="matrix" values="0 0 0 0 0 0 0 0 0 0 0 0 0 0 0 0 0 0 0.25 0"/>
<feBlend mode="normal" in2="BackgroundImageFix" result="effect1_dropShadow_12407_28"/>
<feBlend mode="normal" in="SourceGraphic" in2="effect1_dropShadow_12407_28" result="shape"/>
</filter>
</defs>
</svg>
